<svg xmlns="http://www.w3.org/2000/svg" viewBox="0 0 348.36 209.13"><defs><style>.cls-1{fill:#08537c;}.cls-2{fill:#92be1f;}.cls-3{fill:#93be1f;}.cls-4{fill:#09537c;}.cls-5{fill:#fefefe;}.cls-6{fill:#fdfdfd;}</style></defs><g id="Capa_2" data-name="Capa 2"><g id="Capa_1-2" data-name="Capa 1"><path class="cls-1" d="M31.36,208.82c-10.9-.51-21.58-5.64-30.17-15.19-1.55-1.71-1.65-3.17.09-4.8q4.65-4.32,9.19-8.76c1.82-1.8,3.49-1.46,5.24.05a56.8,56.8,0,0,0,7.71,5.9,19.94,19.94,0,0,0,12.51,2.82c3.88-.35,6.68-2.51,7.46-5.72.91-3.79-1.36-5.85-4.15-7.53-4.08-2.45-8.79-3.41-13.14-5.25-6-2.54-11.68-5.48-16.37-10.18-9.07-9.07-9-28,5.66-35.65,13.69-7.14,33.79-4.79,45.15,5.66,3.37,3.11,3.46,4.29.44,7.67-2.08,2.32-4.29,4.52-6.33,6.87-2.28,2.62-4.38,3.15-7.21.53-4-3.73-8.67-6.32-14.49-5.68-3.25.36-6.39,1.14-7.13,4.85s2,5.5,4.82,6.65c6.68,2.71,13.56,4.92,20.18,7.76,7.61,3.26,13.7,8.18,15.3,17,2.31,12.71-3.77,24.07-15.74,29.47C45.26,207.58,39.33,208.81,31.36,208.82Z"/><path class="cls-1" d="M145.75,92.93c6.26-1.81,9.19-.41,11.79,5.6,1.5,2.87,0,5.28-1.19,7.73-3.07,6.29-3.08,6.29,3.19,9.41,2.11,1,4.22,2.13,6.43,3,5,1.9,8.11.94,10.48-3.81s4.48-9.41,6.67-14.15c3-6.42,5.87-12.87,9-19.21.64-1.3,1.07-2.84,2.74-3.34,2.47,1.14,5,2.13,7.39,3.46,4.08,2.32,5.52,6.25,3.59,10.49q-10.43,22.84-21.14,45.55a7.45,7.45,0,0,1-10.13,3.7q-18.51-8.33-36.83-17.06c-3.81-1.81-5.12-6.24-3.47-10.26,1-2.41,2.12-4.76,3.19-7.14.42-4.66,3-8.43,5.15-12.38A3.11,3.11,0,0,1,145.75,92.93Z"/><path class="cls-2" d="M187.74,48.8c-5,1-8.76-.54-11.07-5.19a4,4,0,0,1-.89-4.45,32.37,32.37,0,0,1,2-4.8c3-5.61,4.25-4.95-2.94-8.3-2.24-1-4.54-2-6.78-3.06-5.38-2.57-9.35-1.2-11.8,4.34-3.2,7.26-6.67,14.39-9.91,21.63-.9,2-1.16,4.56-3.61,5.63-2.13-1-4.28-2-6.4-3-4.25-2.08-6.16-6.29-4.22-10.56,5.59-12.31,11.36-24.56,17.22-36.75A7.54,7.54,0,0,1,159.55.78q18.34,8.29,36.51,17c4.1,2,5.22,6.34,3.39,10.89-.91,2.26-2.77,4.12-2.81,6.74-.77,4.19-2.93,7.75-5.29,11.18A4.45,4.45,0,0,1,187.74,48.8Z"/><path class="cls-2" d="M194.88,78.14,179.1,111.48c-.85,1.8-1.59,3.66-2.61,5.36a7.41,7.41,0,0,1-9.67,3.19c-4.34-1.85-8.56-4-12.91-5.85-2-.83-1.32-1.81-.78-3.17,1.62-4.1,4.75-7.68,4.41-12.48,6.2,2.21,9.57.91,12.26-5,1.09-2.43,2.86-4.63,2.9-7.48.42-3.84,2.71-6.91,4.36-10.21,1.3-2.63.87-4.13-1.88-5.16-4.79-1.79-9.22-4.35-13.9-6.39-3.9-1.7-4.41-2.79-2.81-6.56q1.67-3.94,3.31-7.91c.51-1.24.89-2.64,2.47-3Q179,53.47,193.77,60.23c4.61,2.13,6.29,6.54,4.26,11.16C197,73.67,195.93,75.89,194.88,78.14Z"/><path class="cls-1" d="M155.49,155.68c6.26-.19,11.39,2.26,15.85,6.44,1.8,1.69,2.08,3.28,0,4.92a14.54,14.54,0,0,0-2.26,1.94c-2.54,3-5,4.11-8.2.67-1.2-1.3-3.22-1.22-5-1.18s-3.56,0-3.86,2.1,1.35,2.86,3,3.25a52,52,0,0,1,11.26,3.9c7.92,4,11.07,12.18,7.91,20.48a14.75,14.75,0,0,1-5.77,7.13C160,211,146,210.21,138.27,203.6c-4.12-3.54-4.22-5.29-.48-9,.62-.62,1.28-1.2,1.84-1.86,1.78-2.08,3.4-2.38,5.63-.34,3.05,2.78,6.71,4.27,11,3.27,1.6-.37,3.19-.79,3.35-2.89s-1.22-2.95-2.77-3.52c-3.38-1.24-6.95-2-10.2-3.53-7.48-3.42-10.67-9.58-9.54-17.59.84-5.92,5.86-10.51,13.21-11.94C152,155.85,153.76,155.84,155.49,155.68Z"/><path class="cls-1" d="M201,155.75c6.25-.22,11.36,2.27,15.79,6.49,1.72,1.64,1.82,3.12,0,4.68a24.48,24.48,0,0,0-2.8,2.47c-2.3,2.64-4.43,3.64-7.36.57-1.82-1.9-4.57-1.69-7.09-1.33a2.46,2.46,0,0,0-2.21,1.76,2.38,2.38,0,0,0,1.49,2.72,20.74,20.74,0,0,0,3.86,1.34,40.71,40.71,0,0,1,10.05,3.91c5.87,3.27,8.16,8.38,7.8,14.94-.34,6.19-3.45,10.51-8.87,13.23-8.84,4.44-21.38,3.06-28.14-3.08-1.73-1.57-4.16-3.45-2.74-5.94a14.45,14.45,0,0,1,6.9-6.5c1.25-.51,2,.66,2.84,1.36,3.08,2.54,6.49,4.14,10.63,3.39,1.77-.33,3.62-.79,3.88-2.88.3-2.34-1.6-3.22-3.37-3.86-3.16-1.14-6.48-1.87-9.52-3.23-7.83-3.51-11.34-10.62-9.47-18.54,1.44-6.07,7-10.49,14.25-11.28C198.2,155.82,199.58,155.82,201,155.75Z"/><path class="cls-1" d="M164.25,46.74c-1.82,4.2-3.52,8.46-5.5,12.59-1,2.13-.05,2.79,1.64,3.55,5.54,2.49,11,5.17,16.57,7.58,2.12.92,2.86,1.84,1.63,4-2.12,3.76-3.27,8-5.89,11.51-9.56-4.42-19.14-8.8-28.67-13.27-5-2.32-6.5-6.63-4.28-11.74.94-2.15,2-4.26,3-6.39,4.18-9.12,8.34-18.25,12.56-27.36,3.14-6.77,6.9-8.07,13.75-4.85,3.26,1.54,6.46,3.2,9.8,4.52,2.61,1,3.52,2.11,1.61,4.69a39.45,39.45,0,0,0-3.16,5.88,8.11,8.11,0,0,0-.62,6.13C170.22,40.84,167,41.67,164.25,46.74Z"/><path class="cls-1" d="M299.89,162.7c8.93-8.36,15.91-8.76,24.95-1.87,2,1.52,2.34,3,1.1,5.08-.26.42-.52.84-.77,1.28-3.85,6.7-3.85,6.7-10.59,3.4-6.14-3-12.66,1.11-12.67,8,0,8.34-.1,16.68,0,25,.05,3.22-1.17,4.49-4.38,4.45-13.08-.18-11.12,1.39-11.21-11-.08-11.44,0-22.89,0-34.34,0-2.43-.58-5.21,2.93-5.95,5.46-1.14,8.18,0,9.76,4C299.27,161.38,299.54,161.93,299.89,162.7Z"/><path class="cls-1" d="M348.32,183.09c0,7-.08,13.93,0,20.89,0,2.87-1.09,4.13-3.93,4.1-13.34-.18-11.58,1.73-11.65-10.93-.07-11.82,0-23.63,0-35.45,0-4.35.64-4.94,4.93-5,11.77-.07,10.63-.66,10.63,10.69Z"/><path class="cls-3" d="M145.75,92.93c-3.64,1.91-4.19,5.85-5.9,9-.86,1.6-1.58,3.29-2.37,4.93-2.34-1.11-4.71-2.17-7-3.36-4.24-2.18-5.85-6.48-4-10.59s6.19-5.82,10.59-4C140,90.09,142.85,91.57,145.75,92.93Z"/><path class="cls-4" d="M187.74,48.8c3.66-2.22,4.85-6.12,6.69-9.61.68-1.29.89-2.87,2.21-3.8,2.35,1.09,4.81,2,7.05,3.32a7.63,7.63,0,0,1,3.07,10,7.55,7.55,0,0,1-9.52,4.3C194,51.85,190.9,50.22,187.74,48.8Z"/><path class="cls-4" d="M341,136.48c7.36,0,7.36,0,7.36,7.16s0,7.12-7.77,7.12-7.8,0-7.8-7.61c0-6.67,0-6.67,6.72-6.67Z"/><path class="cls-1" d="M113.68,162.62a6,6,0,0,0,.6-.87c1.8-4.72,6.06-6.65,11-5,1.68.57,2.18,1.88,2.18,3.51q0,22.05,0,44.1c0,1.18-.21,2.36-1.26,3-2.55,1.43-5.38.45-8.07.73-3.12.32-5.09-.88-5.28-5-6.38,5.7-13.13,7.12-20.58,5a25.82,25.82,0,0,1-15-11c-7.31-11.29-5-26.7,5.3-35.11C92.55,153.76,104.83,154,113.68,162.62Z"/><path class="cls-5" d="M87.72,182.32c0-7.29,5.15-12.88,11.7-12.8a12.9,12.9,0,0,1,12.5,13.11A12.49,12.49,0,0,1,99.3,195.08C92.45,195.06,87.69,189.81,87.72,182.32Z"/><path class="cls-1" d="M258.92,187.14c-4.73,0-9.47.06-14.21,0-2.1,0-2.27.78-1.61,2.49,1.62,4.22,7.24,7.25,12.37,6.41,3.08-.5,6.12-1.29,8.56-3.43,1.76-1.54,3.21-1.21,4.84.34,6.37,6.11,6.14,8.07-1.61,12.55-9.37,5.42-21.91,4.15-30.34-3.07a26.44,26.44,0,0,1-7.55-30.14A25.21,25.21,0,0,1,254.2,156c14,.47,25.45,13.82,23.74,27.6-.39,3.11-2.54,3.45-4.8,3.51-4.74.13-9.48,0-14.22,0Z"/><path class="cls-6" d="M263.25,175.46h-20c2.1-4.2,5.06-7,9.42-7.16C257.41,168.07,260.77,170.7,263.25,175.46Z"/></g></g></svg>