<svg xmlns="http://www.w3.org/2000/svg" viewBox="0 0 348.36 88.73"><defs><style>.cls-1{fill:#08537c;}.cls-2{fill:#09537c;}.cls-3{fill:#fefefe;}.cls-4{fill:#fdfdfd;}</style></defs><g id="Capa_2" data-name="Capa 2"><g id="Capa_1-2" data-name="Capa 1"><path class="cls-1" d="M31.36,88.41c-10.9-.5-21.58-5.63-30.17-15.18-1.55-1.71-1.65-3.18.09-4.8q4.65-4.32,9.19-8.77c1.82-1.79,3.49-1.45,5.24.06a58.47,58.47,0,0,0,7.71,5.9,20,20,0,0,0,12.51,2.82c3.88-.35,6.68-2.52,7.46-5.73.91-3.78-1.36-5.85-4.15-7.52-4.08-2.45-8.79-3.41-13.14-5.26-6-2.54-11.68-5.48-16.37-10.17-9.07-9.08-9-28,5.66-35.66C29.08-3,49.18-.68,60.54,9.77c3.37,3.1,3.46,4.29.44,7.67C58.9,19.76,56.69,22,54.65,24.3c-2.28,2.63-4.38,3.15-7.21.53-4-3.72-8.67-6.31-14.49-5.67-3.25.36-6.39,1.14-7.13,4.84s2,5.51,4.82,6.66c6.68,2.7,13.56,4.92,20.18,7.76,7.61,3.26,13.7,8.18,15.3,17,2.31,12.71-3.77,24.07-15.74,29.47C45.26,87.17,39.33,88.41,31.36,88.41Z"/><path class="cls-1" d="M155.49,35.28c6.26-.2,11.39,2.26,15.85,6.44,1.8,1.68,2.08,3.27,0,4.91a14.08,14.08,0,0,0-2.26,1.95c-2.54,3-5,4.11-8.2.67-1.2-1.3-3.22-1.23-5-1.18s-3.56,0-3.86,2.09,1.35,2.87,3,3.25a52.52,52.52,0,0,1,11.26,3.91c7.92,4,11.07,12.17,7.91,20.48a14.8,14.8,0,0,1-5.77,7.13C160,90.6,146,89.8,138.27,83.19c-4.12-3.53-4.22-5.28-.48-9,.62-.61,1.28-1.19,1.84-1.85,1.78-2.08,3.4-2.38,5.63-.34,3.05,2.78,6.71,4.26,11,3.27,1.6-.37,3.19-.79,3.35-2.89s-1.22-3-2.77-3.52c-3.38-1.25-6.95-2-10.2-3.53-7.48-3.42-10.67-9.58-9.54-17.59.84-5.93,5.86-10.51,13.21-11.94C152,35.45,153.76,35.44,155.49,35.28Z"/><path class="cls-1" d="M201,35.34c6.25-.22,11.36,2.28,15.79,6.49,1.72,1.64,1.82,3.13,0,4.69a24.48,24.48,0,0,0-2.8,2.47c-2.3,2.63-4.43,3.64-7.36.57-1.82-1.9-4.57-1.69-7.09-1.33A2.43,2.43,0,0,0,197.25,50a2.39,2.39,0,0,0,1.49,2.72A21.46,21.46,0,0,0,202.6,54,41.14,41.14,0,0,1,212.65,58c5.87,3.27,8.16,8.37,7.8,14.93-.34,6.2-3.45,10.52-8.87,13.24-8.84,4.44-21.38,3.06-28.14-3.08-1.73-1.57-4.16-3.46-2.74-5.94a14.47,14.47,0,0,1,6.9-6.51c1.25-.5,2,.67,2.84,1.37,3.08,2.54,6.49,4.14,10.63,3.38,1.77-.32,3.62-.78,3.88-2.88.3-2.33-1.6-3.21-3.37-3.85-3.16-1.14-6.48-1.87-9.52-3.24-7.83-3.5-11.34-10.61-9.47-18.53,1.44-6.07,7-10.5,14.25-11.28C198.2,35.42,199.58,35.41,201,35.34Z"/><path class="cls-1" d="M299.89,42.3c8.93-8.36,15.91-8.76,24.95-1.88,2,1.53,2.34,3,1.1,5.08-.26.43-.52.85-.77,1.28-3.85,6.71-3.85,6.71-10.59,3.4-6.14-3-12.66,1.12-12.67,8,0,8.34-.1,16.68,0,25,.05,3.21-1.17,4.49-4.38,4.44-13.08-.17-11.12,1.4-11.21-11-.08-11.45,0-22.9,0-34.35,0-2.42-.58-5.21,2.93-5.94,5.46-1.14,8.18,0,9.76,4C299.27,41,299.54,41.53,299.89,42.3Z"/><path class="cls-1" d="M348.32,62.69c0,7-.08,13.93,0,20.89,0,2.86-1.09,4.13-3.93,4.09-13.34-.18-11.58,1.74-11.65-10.93-.07-11.81,0-23.63,0-35.44,0-4.35.64-4.94,4.93-5,11.77-.07,10.63-.67,10.63,10.69Z"/><path class="cls-2" d="M341,16.07c7.36,0,7.36,0,7.36,7.17s0,7.11-7.77,7.11-7.8,0-7.8-7.61c0-6.67,0-6.67,6.72-6.67Z"/><path class="cls-1" d="M113.68,42.21a6.1,6.1,0,0,0,.6-.86c1.8-4.72,6.06-6.65,11-5,1.68.57,2.18,1.88,2.18,3.51q0,22.05,0,44.09c0,1.19-.21,2.37-1.26,3-2.55,1.43-5.38.45-8.07.73-3.12.32-5.09-.88-5.28-5-6.38,5.71-13.13,7.13-20.58,5a25.79,25.79,0,0,1-15-11.05,26.9,26.9,0,0,1,5.3-35.1C92.55,33.35,104.83,33.59,113.68,42.21Z"/><path class="cls-3" d="M87.72,61.92c0-7.29,5.15-12.88,11.7-12.8a12.9,12.9,0,0,1,12.5,13.1A12.5,12.5,0,0,1,99.3,74.68C92.45,74.65,87.69,69.41,87.72,61.92Z"/><path class="cls-1" d="M258.92,66.74c-4.73,0-9.47.05-14.21,0-2.1,0-2.27.79-1.61,2.5,1.62,4.21,7.24,7.25,12.37,6.41,3.08-.51,6.12-1.3,8.56-3.43,1.76-1.55,3.21-1.22,4.84.34,6.37,6.1,6.14,8.07-1.61,12.55-9.37,5.42-21.91,4.15-30.34-3.07a26.46,26.46,0,0,1-7.55-30.15A25.19,25.19,0,0,1,254.2,35.58c14,.47,25.45,13.82,23.74,27.6-.39,3.11-2.54,3.45-4.8,3.51-4.74.12-9.48,0-14.22,0Z"/><path class="cls-4" d="M263.25,55.06h-20c2.1-4.21,5.06-7,9.42-7.17C257.41,47.67,260.77,50.3,263.25,55.06Z"/></g></g></svg>