<svg xmlns="http://www.w3.org/2000/svg" viewBox="0 0 81.82 142.09"><defs><style>.cls-1{fill:#08537c;}.cls-2{fill:#92be1f;}.cls-3{fill:#93be1f;}.cls-4{fill:#09537c;}</style></defs><g id="Capa_2" data-name="Capa 2"><g id="Capa_1-2" data-name="Capa 1"><path class="cls-1" d="M20.05,92.93c6.25-1.81,9.19-.41,11.79,5.6,1.49,2.87,0,5.28-1.19,7.73-3.08,6.29-3.08,6.29,3.19,9.41,2.11,1,4.21,2.13,6.43,3,5,1.9,8.11.94,10.47-3.81s4.48-9.41,6.67-14.15c3-6.42,5.88-12.87,9-19.21.64-1.3,1.07-2.84,2.73-3.34,2.47,1.14,5,2.13,7.4,3.46,4.08,2.32,5.52,6.25,3.59,10.49Q69.73,114.93,59,137.64a7.46,7.46,0,0,1-10.13,3.7Q30.38,133,12.06,124.28C8.25,122.47,6.94,118,8.59,114c1-2.41,2.12-4.76,3.19-7.14.42-4.66,3-8.43,5.14-12.38A3.14,3.14,0,0,1,20.05,92.93Z"/><path class="cls-2" d="M62,48.8c-5,1-8.76-.54-11.08-5.19a4,4,0,0,1-.89-4.45,33.53,33.53,0,0,1,2-4.8c3-5.61,4.24-4.95-2.94-8.3-2.25-1-4.55-2-6.79-3.06C37,20.43,33,21.8,30.55,27.34,27.34,34.6,23.88,41.73,20.64,49c-.9,2-1.17,4.56-3.62,5.63-2.13-1-4.27-2-6.39-3C6.38,49.49,4.46,45.28,6.4,41Q14.8,22.55,23.63,4.26A7.54,7.54,0,0,1,33.85.78q18.34,8.29,36.5,17c4.11,2,5.23,6.34,3.4,10.89-.91,2.26-2.78,4.12-2.82,6.74-.77,4.19-2.93,7.75-5.28,11.18A4.47,4.47,0,0,1,62,48.8Z"/><path class="cls-2" d="M69.17,78.14Q61.28,94.82,53.4,111.48c-.85,1.8-1.6,3.66-2.62,5.36A7.4,7.4,0,0,1,41.12,120c-4.35-1.85-8.56-4-12.91-5.85-2-.83-1.32-1.81-.79-3.17,1.62-4.1,4.76-7.68,4.42-12.48,6.2,2.21,9.57.91,12.25-5C45.19,91.05,47,88.85,47,86c.42-3.84,2.71-6.91,4.36-10.21,1.3-2.63.86-4.13-1.89-5.16-4.78-1.79-9.22-4.35-13.89-6.39-3.9-1.7-4.41-2.79-2.82-6.56,1.12-2.63,2.21-5.27,3.31-7.91.52-1.24.89-2.64,2.48-3q14.76,6.73,29.51,13.49c4.62,2.13,6.29,6.54,4.27,11.16C71.33,73.67,70.23,75.89,69.17,78.14Z"/><path class="cls-1" d="M38.55,46.74c-1.82,4.2-3.52,8.46-5.5,12.59-1,2.13,0,2.79,1.64,3.55,5.54,2.49,11,5.17,16.57,7.58,2.11.92,2.86,1.84,1.63,4C50.77,78.25,49.62,82.5,47,86c-9.56-4.42-19.14-8.8-28.68-13.27-5-2.32-6.49-6.63-4.27-11.74.93-2.15,2-4.26,3-6.39,4.18-9.12,8.34-18.25,12.56-27.36,3.13-6.77,6.89-8.07,13.75-4.85,3.25,1.54,6.46,3.2,9.8,4.52,2.61,1,3.52,2.11,1.6,4.69a40.39,40.39,0,0,0-3.16,5.88A8.16,8.16,0,0,0,51,43.61C44.52,40.84,41.24,41.67,38.55,46.74Z"/><path class="cls-3" d="M20.05,92.93c-3.64,1.91-4.19,5.85-5.9,9-.87,1.6-1.59,3.29-2.37,4.93-2.34-1.11-4.71-2.17-7-3.36C.53,101.34-1.08,97,.74,92.93s6.19-5.82,10.59-4C14.29,90.09,17.14,91.57,20.05,92.93Z"/><path class="cls-4" d="M62,48.8c3.65-2.22,4.85-6.12,6.69-9.61.68-1.29.89-2.87,2.2-3.8,2.36,1.09,4.82,2,7.06,3.32a7.63,7.63,0,0,1,3.07,10A7.55,7.55,0,0,1,71.54,53C68.28,51.85,65.2,50.22,62,48.8Z"/></g></g></svg>